inDegrees=no
num_controls=7
num_derivatives=13
num_iterations=57
num_multipliers=7
num_parameters=0
num_slacks=7
num_states=26
objective=0.470661
objective_accelerations=0.059720
objective_balance=0.003414
objective_effort=0.049097
objective_height=0.352648
objective_ligament=0.005782
solver_duration=800.676831
status=Solve_Succeeded
success=true
DataType=double
version=3
OpenSimVersion=4.5
endheader
time	/jointset/ground_pelvis/pelvis_tilt/value	/jointset/ground_pelvis/pelvis_tx/value	/jointset/ground_pelvis/pelvis_ty/value	/jointset/hip_l/hip_flexion_l/value	/jointset/hip_l/hip_adduction_l/value	/jointset/hip_l/hip_rotation_l/value	/jointset/back/lumbar_extension/value	/jointset/patellofemoral_l/patellar_flexion_l/value	/jointset/knee_l/knee_flexion_l/value	/jointset/knee_l/knee_adduction_l/value	/jointset/knee_l/knee_rotation_l/value	/jointset/ankle_l/ankle_angle_l/value	/jointset/subtalar_l/subtalar_angle_l/value	/jointset/ground_pelvis/pelvis_tilt/speed	/jointset/ground_pelvis/pelvis_tx/speed	/jointset/ground_pelvis/pelvis_ty/speed	/jointset/hip_l/hip_flexion_l/speed	/jointset/hip_l/hip_adduction_l/speed	/jointset/hip_l/hip_rotation_l/speed	/jointset/back/lumbar_extension/speed	/jointset/patellofemoral_l/patellar_flexion_l/speed	/jointset/knee_l/knee_flexion_l/speed	/jointset/knee_l/knee_adduction_l/speed	/jointset/knee_l/knee_rotation_l/speed	/jointset/ankle_l/ankle_angle_l/speed	/jointset/subtalar_l/subtalar_angle_l/speed	/forceset/tau_hip_flexion_l	/forceset/tau_hip_adduction_l	/forceset/tau_hip_rotation_l	/forceset/tau_knee_flexion_l	/forceset/tau_ankle_angle_l	/forceset/tau_subtalar_angle_l	/forceset/tau_lumbar_extension	lambda_cid13_p0	lambda_cid13_p1	lambda_cid13_p2	lambda_cid13_p3	lambda_cid13_p4	lambda_cid13_p5	lambda_cid14_p0	/jointset/ground_pelvis/pelvis_tilt/accel	/jointset/ground_pelvis/pelvis_tx/accel	/jointset/ground_pelvis/pelvis_ty/accel	/jointset/hip_l/hip_flexion_l/accel	/jointset/hip_l/hip_adduction_l/accel	/jointset/hip_l/hip_rotation_l/accel	/jointset/back/lumbar_extension/accel	/jointset/patellofemoral_l/patellar_flexion_l/accel	/jointset/knee_l/knee_flexion_l/accel	/jointset/knee_l/knee_adduction_l/accel	/jointset/knee_l/knee_rotation_l/accel	/jointset/ankle_l/ankle_angle_l/accel	/jointset/subtalar_l/subtalar_angle_l/accel	gamma_cid13_p0	gamma_cid13_p1	gamma_cid13_p2	gamma_cid13_p3	gamma_cid13_p4	gamma_cid13_p5	gamma_cid14_p0
0.5	-0.1233597861898526	-0.04978878890217178	0.7616387454960192	1.104257240060358	-0.3195521688122394	-0.0551942208095209	-0.8039861161145955	1.102866541073509	1.102866541073496	-0.04085797719694451	-0.1745064956329193	0.2035245135223625	0.04601333723124398	-0.1738315852113473	-0.1455440834118782	-0.6046593260532273	2.065184018936182	-0.004352216049660538	0.5624338076822638	-0.82122656165339	2.266247922714796	2.266247922714784	0.3250832098833442	-0.0002226561408884538	0.531304946902788	0.2008347811036739	-0.2960201368421277	0.05275168649580252	-0.008898254433326517	-0.2756052508616724	0.08846196775691724	0.01518116145632713	0.343693272894725	-16.01051256696218	-2.045484294133564	-2.120690635192819	-11.5008773397307	-695.3587256873353	-40.66528007725943	-3.106113877625426	0.6095215151524046	0.8444199188393717	-0.3628631967281458	-1.722641618996173	0.2465227343272157	-0.6886728311405365	2.144653828025303	-1.737424754120543	-1.737424754120543	-0.2281041703123331	0.04211546559466232	-0.7492713441584071	0.1604285909281592	-2.402168404816183e-07	-1.579298933491737e-06	3.730017407993126e-07	-1.710222325134941e-07	-2.699115749439195e-07	-4.023245721034873e-07	-2.5658482565305e-07
0.51	-0.1250672137967867	-0.0512020662675955	0.7555754056728228	1.12482000865895	-0.3195844234218572	-0.0496055631879567	-0.8120904378419657	1.125438784709825	1.125438784709822	-0.03761966938846169	-0.1745084843677213	0.2087987645141078	0.0480279123557849	-0.1676157018780654	-0.1371179217438246	-0.6078679191981569	2.047097725821776	-0.002110705450224216	0.555236931003703	-0.799560667568792	2.2478911784147	2.247891178414693	0.3225781364626659	-0.0001825311880719938	0.5234551169524897	0.2020305103212449	-0.3035464066200851	0.05260871085499911	-0.00888400647270805	-0.2808057566222678	0.0868243904262839	0.01511898209956261	0.3511118956289377	-16.93323755281831	-1.666919452939479	-2.398067602352475	-11.06670586811222	-701.7468199765439	-40.59206963683042	-2.515047580645259	0.6333328879371635	0.8407078670945889	-0.2788065715840083	-1.892446213934036	0.2111867095181078	-0.7445842486090065	2.189124636269993	-1.931188306136637	-1.931188306135934	-0.2619857473092638	-0.01603788419279808	-0.8164282923101256	0.09184160691227398	-2.502469262660705e-07	-1.382212792505508e-06	6.386320079621667e-07	-1.287789290798068e-07	-2.742014674489102e-07	-2.848764687686471e-07	-2.647855580501998e-07
0.52	-0.1267113403412808	-0.05253128330107743	0.7494841900785354	1.145193749715144	-0.3195946186281272	-0.04409075216565906	-0.8199757871409707	1.147818183095505	1.14781818309551	-0.03440646767805835	-0.1745102716318534	0.2139917993119815	0.05005298407644965	-0.1611713727239467	-0.1287320170235225	-0.6102344802714275	2.027378510456522	5.96646198654086e-05	0.5476644878293375	-0.7774320759804784	2.227678872587302	2.2276788725873	0.3200619902674402	-0.000182362007970341	0.5150617081284107	0.2029341003284463	-0.3110726763980444	0.05246573521419075	-0.008869758512078314	-0.2860062623828626	0.08518681309564981	0.01505680274279221	0.35853051836315	-17.85706493792306	-1.296231374540135	-2.664970978684813	-10.6898540969258	-708.1583610457212	-40.57567067052182	-1.985158916705092	0.6552106793195948	0.8363685292891944	-0.1944567823963307	-2.049226069165725	0.2322946284578641	-0.7637861303014817	2.237193328768345	-2.108537059581081	-2.108537059581081	-0.2303187252218298	0.03412431105168735	-0.8579871189143455	0.1020007488543024	-2.287592671608704e-07	-1.241789070879361e-06	6.206136553038486e-07	-1.201152427285746e-07	-2.51308529154099e-07	-2.292434162942674e-07	-2.453410575347728e-07
0.53	-0.1282900199727564	-0.05377695266688517	0.7433735398993138	1.165362378532639	-0.3195834034404658	-0.03865305038645619	-0.8276377701907407	1.169986304333662	1.169986304333658	-0.03121872407307474	-0.174511906533895	0.2190982333377881	0.0520856746151481	-0.1545371758849312	-0.1204188973463712	-0.6117515904478503	2.006087889090066	0.002166705070174316	0.5398422967154323	-0.754914275769199	2.205640524918816	2.205640524918823	0.3174540669425165	-0.0001450061521994431	0.506135391284728	0.20354489826218	-0.3181693451938061	0.05215661568991144	-0.008861523849284833	-0.2914025510513666	0.08352097013857003	0.01488296609472499	0.3655022741619263	-18.79707006047375	-0.8719120774430752	-2.943058610776758	-10.13232707540031	-714.4500747496187	-40.51408031119888	-1.517032734919311	0.6716088150584971	0.8262043930837134	-0.1087912232282033	-2.207909090461628	0.1974063941030725	-0.7967036405419173	2.266612097774211	-2.297164113735527	-2.297164113734264	-0.2811300693904502	-0.01140581771261516	-0.9234655145429986	0.03186817597793815	-2.082457547052434e-07	-1.117664529334851e-06	5.994548449343045e-07	-1.143200895241169e-07	-2.279356091564823e-07	-1.774824372217621e-07	-2.279229537783504e-07
0.54	-0.1298015407100654	-0.05494000669469033	0.7372520280007352	1.185310315352456	-0.3195516183201437	-0.0332946241261176	-0.8350730674923039	1.191924905996483	1.191924905996469	-0.02805807988798869	-0.1745131572854842	0.2241127018856685	0.05412272290525286	-0.1477395938912826	-0.1122089494230026	-0.6124068241427858	1.983240110920564	0.004173651151913402	0.531809384057253	-0.7320949263392624	2.181774957520202	2.181774957520217	0.3146421062870796	-0.0001055319185221547	0.4966686125431377	0.2038056506097172	-0.3252660139895714	0.05184749616562332	-0.008853289186443599	-0.2967988397198689	0.0818551271814887	0.01470912944664546	0.3724740299607009	-19.7398163785614	-0.4550136189578308	-3.210938457198877	-9.625046093745109	-720.7853075444342	-40.50731052363736	-1.111506771728972	0.68788771024606	0.8157341785327596	-0.02208148609886508	-2.360657429774868	0.2122757547438951	-0.8059304391563029	2.297503172499679	-2.473981005606872	-2.473981005606873	-0.2711261913245045	0.03454798663295921	-0.9660794984956511	0.03199163161507183	-1.888100215214847e-07	-1.011573123199813e-06	5.74821485607659e-07	-1.116986325671544e-07	-2.040316455727832e-07	-1.300054542534582e-07	-2.127468209042312e-07
0.55	-0.1312443559547636	-0.05602149976603665	0.7311282552192675	1.205022210749738	-0.3195001633551405	-0.02801763967956809	-0.8422786985102405	1.213616070690476	1.213616070690472	-0.02492622955210583	-0.1745139213905	0.2290301014587091	0.05616083207388808	-0.1407998290983427	-0.104108473130809	-0.6122043214928791	1.958888293800562	0.006100599458340046	0.5235318348411688	-0.7089903502265829	2.156181032333642	2.156181032333656	0.3117218987198425	-5.831583911611847e-05	0.4867478086368981	0.2037650313512286	-0.3320037455677967	0.05130627182920786	-0.008853153998684263	-0.3023339196497741	0.08038304207840953	0.01447161886451836	0.3791205405622121	-20.61455959229316	-0.02360177266696918	-3.479723450465561	-9.136695388401348	-726.9340184667619	-40.49776967533074	-0.769545848652557	0.7005445133845083	0.8043610584380207	0.06288954065669063	-2.510066825980544	0.1803776414031852	-0.8472182627593333	2.323073883700943	-2.643599723123635	-2.643599723123798	-0.3035471251476539	-0.01174282453229762	-1.014649807945121	-0.02967491024265192	-1.694031226672957e-07	-9.078809782947816e-07	5.406878289485545e-07	-1.076584075216942e-07	-1.828085805523003e-07	-9.228290090379441e-08	-1.958631383352106e-07
0.5600000000000001	-0.1326170688216159	-0.05702255673368604	0.7250108021443232	1.224483063381248	-0.3194299442525103	-0.02282514094516687	-0.8492520559564399	1.235042995843015	1.235042995843021	-0.02182379710904062	-0.1745145235833442	0.2338463791984362	0.05819701780880603	-0.1337191183227462	-0.09612172868361564	-0.6111428828381179	1.933031557765852	0.007926478677214143	0.5149122416280916	-0.6856402119919498	2.128927049229361	2.128927049229374	0.3087585277236319	-7.314948477679047e-05	0.4764442458803805	0.2034209638662692	-0.3387414771460241	0.05076504749278754	-0.008853018810919842	-0.3078689995796784	0.07891095697533013	0.01423410828238509	0.3857670511637222	-21.49336181576339	0.400482936688098	-3.738159037411282	-8.6943125935084	-733.1449135417237	-40.54079556982709	-0.4921606933798603	0.7160769067772026	0.79298780953281	0.1497057148720649	-2.661641212716504	0.1920619372333785	-0.8743392385549521	2.34661559689032	-2.805992589150992	-2.805992589150992	-0.2797588771192255	0.02213804161961698	-1.042631268551109	-0.02869801367903191	-1.500308250085906e-07	-8.070679468657573e-07	4.951538154904996e-07	-1.019156607700369e-07	-1.648025938076765e-07	-6.626566309649832e-08	-1.769303961323085e-07
0.5700000000000001	-0.1339184199916907	-0.05794442231919662	0.7189082557562194	1.243678048539477	-0.3193418575810298	-0.01772016911356995	-0.8559909202143459	1.256189161998014	1.256189161998031	-0.01875135731843719	-0.1745152251171032	0.2385577482752704	0.06022835893998408	-0.1265408769090794	-0.08828047534176126	-0.6092227333697536	1.905729837609248	0.009674327504527902	0.506054875637002	-0.6621168649550654	2.100033019736069	2.100033019736077	0.3056937884022576	-6.466431940451749e-05	0.465766426063534	0.2027930647186868	-0.3449712303340113	0.05014493356106949	-0.008854440970088319	-0.3134623066940795	0.0773415020426125	0.01388326208830725	0.3918688079798235	-22.4007618324335	0.88087484892183	-4.00794543876367	-8.053957636548194	-739.0702476439754	-40.51429047869247	-0.2805945675784958	0.7202162540446742	0.775311324859938	0.2346878513380282	-2.799801248314749	0.163646255434261	-0.8956849737061249	2.357560452048006	-2.972049190388366	-2.972049190389281	-0.3253143237214724	-0.009336576475614096	-1.089863986099207	-0.08790083828257791	-1.306407732536103e-07	-7.087888559798585e-07	4.513858753671052e-07	-9.700485695268097e-08	-1.455418364148787e-07	-3.915513522266312e-08	-1.587830560285846e-07
0.58	-0.1351476850485489	-0.05878875192561914	0.7128292145205032	1.262592943729905	-0.3192367924412848	-0.01270462088074949	-0.8624940777628902	1.277038199645885	1.277038199645913	-0.01571066149387251	-0.1745157498653016	0.2431604378243668	0.06225180808508934	-0.119301895680088	-0.08061453286600052	-0.6064418523606097	1.877013564205343	0.01132217232999771	0.4970275218731083	-0.6384988701197611	2.069501347803974	2.069501347803976	0.3024097345178868	-3.779237289646498e-05	0.4547083403327782	0.2018425666517171	-0.3512009835220005	0.04952481962934963	-0.008855863129315491	-0.3190556138084825	0.07577204710989552	0.01353241589422832	0.3979705647959241	-23.31295655642833	1.354142769974323	-4.267499930748836	-7.45423615576918	-745.0652609247909	-40.53655574161566	-0.1359783751454497	0.7282248698419793	0.7579256363141851	0.3218520230280109	-2.944551862176906	0.172061136864575	-0.9083367931157934	2.365545156574238	-3.133521076911685	-3.133521076911685	-0.3236217897185618	0.02581539784677597	-1.118684451332826	-0.09321779755644441	-1.112275998848765e-07	-6.138097806850077e-07	4.099179377260595e-07	-9.31775137009266e-08	-1.2464695910818e-07	-1.062078772728901e-08	-1.416585651703025e-07
0.59	-0.1363043269524478	-0.05955733134356384	0.7067822541243824	1.281213754631671	-0.3191156721043482	-0.007780356984075695	-0.8687606696132053	1.2975739880679	1.297573988067905	-0.01270357694033715	-0.1745158845606848	0.2476508758368595	0.06426429882339403	-0.1120200390785822	-0.07313339670629765	-0.6028088678937055	1.846918675973177	0.01288006485270687	0.4877715483429232	-0.6148164986192208	2.0374028611603	2.037402861160311	0.2989906022957559	-5.590432450236007e-06	0.4433347864923708	0.200600199635408	-0.3570245993382631	0.04877167774206712	-0.008866654450809329	-0.3246293003192288	0.07423089828837355	0.01311734905228231	0.4036638834368359	-24.20389726504412	1.849444286961265	-4.528127295384054	-6.806934010540027	-750.7462875528178	-40.52584199573457	-0.05813201604450323	0.7291184823202118	0.7383825215108375	0.4052030229494133	-3.076463236710357	0.1443551255399357	-0.9424109493196174	2.370033345236423	-3.286007448677731	-3.286007448676254	-0.3536506604405811	-0.01047284045406468	-1.153387431024492	-0.1480097097784094	-7.726762703487225e-08	-4.406060125570391e-07	3.568061069146828e-07	-8.351209911543016e-08	-9.226036138355151e-08	2.644865703709675e-08	-1.106986520828503e-07
